<svg width="510" height="510" viewBox="0 0 510 510" fill="none" xmlns="http://www.w3.org/2000/svg">
<path d="M385 17C452.931 17 508 72.069 508 140V295C508 353.542 460.542 401 402 401H265V251.5C275.627 259.355 288.771 264 303 264C338.346 264 367 235.346 367 200C367 164.654 338.346 136 303 136C288.771 136 275.627 140.645 265 148.499V17H385Z" fill="black"/>
<path d="M385 17C452.931 17 508 72.069 508 140V295C508 353.542 460.542 401 402 401H265V251.5C275.627 259.355 288.771 264 303 264C338.346 264 367 235.346 367 200C367 164.654 338.346 136 303 136C288.771 136 275.627 140.645 265 148.499V17H385Z" fill="url(#paint0_linear_5_71)" fill-opacity="0.2"/>
<path d="M244 143.332C244.948 160.105 262.969 169.76 271.5 165.5C279.435 161.537 291.823 156 302 156C326.3 156 346 175.7 346 200C346 224.3 326.3 244 302 244C285.413 244 276.5 236.5 273 233.5C263.195 231.539 244.331 239.672 244 259.785V401H174.07L91.5 484C91.4905 484.013 83.3811 494.652 78 492.5C72.5621 490.325 74.4993 473.006 74.5 473V395.923C31.8569 382.201 1 342.205 1 295V140C1 72.069 56.069 17 124 17H244V143.332Z" fill="white"/>
<path d="M244 143.332C244.948 160.105 262.969 169.76 271.5 165.5C279.435 161.537 291.823 156 302 156C326.3 156 346 175.7 346 200C346 224.3 326.3 244 302 244C285.413 244 276.5 236.5 273 233.5C263.195 231.539 244.331 239.672 244 259.785V401H174.07L91.5 484C91.4905 484.013 83.3811 494.652 78 492.5C72.5621 490.325 74.4993 473.006 74.5 473V395.923C31.8569 382.201 1 342.205 1 295V140C1 72.069 56.069 17 124 17H244V143.332Z" fill="url(#paint1_linear_5_71)" fill-opacity="0.2"/>
<path d="M82 199.5C82 199.5 104 167 134 199.5" stroke="#111A2D" stroke-width="10" stroke-linecap="round"/>
<path d="M170 199.444C170 199.444 192 166.944 222 199.444" stroke="#111A2D" stroke-width="10" stroke-linecap="round"/>
<defs>
<linearGradient id="paint0_linear_5_71" x1="265" y1="17" x2="446" y2="386.5" gradientUnits="userSpaceOnUse">
<stop stop-color="white"/>
<stop offset="0.759615"/>
<stop offset="1"/>
</linearGradient>
<linearGradient id="paint1_linear_5_71" x1="22.5" y1="34.5" x2="112.859" y2="415.751" gradientUnits="userSpaceOnUse">
<stop stop-color="white"/>
<stop offset="0.403846" stop-color="#F5F5F5"/>
<stop offset="0.759615" stop-color="#1A2437"/>
<stop offset="1" stop-color="#1A2437"/>
</linearGradient>
</defs>
</svg>
